<?xml version="1.0" encoding="UTF-8" standalone="no"?>
<!-- Created with Inkscape (http://www.inkscape.org/) -->

<svg version="1.1" id="svg1" width="3728" height="3728" viewBox="0 0 3728 3728" xmlns="http://www.w3.org/2000/svg" xmlns:svg="http://www.w3.org/2000/svg">
    <defs id="defs1" />
    <g id="g1">
        <g id="group-R5">
            <path id="path2" d="M 27960,0 H 0 V 27960 H 27960 V 0" style="fill:#fff;fill-opacity:1;fill-rule:nonzero;stroke:none" transform="matrix(0.13333333,0,0,-0.13333333,0,3728)" />
            <path id="path3" d="m 17666.2,11124.9 c -1066.5,0 -1931.1,864.6 -1931.1,1931.1 0,1066.6 864.6,1931.2 1931.1,1931.2 1066.6,0 1931.2,-864.6 1931.2,-1931.2 0,-1066.5 -864.6,-1931.1 -1931.2,-1931.1 z m 1287.3,-4131.6 c -154.3,-154.3 -367.4,-249.6 -602.8,-249.6 H 17525 v 1705 h 825.7 c 470.9,0 852.5,-381.6 852.5,-852.5 0,-235.4 -95.4,-448.6 -249.7,-602.9 z m -1805.6,-249.6 h -1301.1 v 1705 h 1301.1 z m -1678.2,0 h -1301.1 v 1705 h 1301.1 z m -1678.3,0 h -1301.1 v 1705 h 1301.1 z m -3497.6,4381.2 c -1066.61,0 -1931.18,864.6 -1931.18,1931.1 0,1066.6 864.57,1931.2 1931.18,1931.2 1066.5,0 1931.1,-864.6 1931.1,-1931.2 0,-1066.5 -864.6,-1931.1 -1931.2,-1931.1 z m 1819.4,-4381.2 h -1301.1 v 1705 h 1301.1 z m -1678.2,0 h -825.7 c -470.86,0 -852.54,381.6 -852.54,852.5 0,235.4 95.4,448.5 249.74,602.9 154.26,154.2 367.37,249.6 602.8,249.6 h 825.7 z m 10728.3,9346.7 v 0 571.5 c 0,1152.5 -934.3,2086.8 -2086.9,2086.8 h -3304.9 c 0,892.2 -652.1,1631.9 -1505.7,1768.7 v 4307.7 c 138.9,92.5 230.5,250.5 230.5,430 v 0 c 0,285.1 -231.1,516.3 -516.3,516.3 -285.2,0 -516.3,-231.2 -516.3,-516.3 v 0 c 0,-179.5 91.6,-337.5 230.5,-430 v -4307.7 c -853.6,-136.8 -1505.7,-876.5 -1505.7,-1768.7 H 8883.56 c -1152.52,0 -2086.84,-934.3 -2086.84,-2086.8 v -572.9 0 c -648.01,0 -1173.33,-525.3 -1173.33,-1173.4 v -5295 c 0,-648 525.32,-1173.3 1173.33,-1173.3 v 0 V 6469 c 0,-1152.5 934.32,-2086.8 2086.84,-2086.8 H 19076.4 c 1152.6,0 2086.9,934.3 2086.9,2086.8 v 1979.7 0 c 648,0 1173.3,525.3 1173.3,1173.4 v 5295 c 0,648 -525.3,1173.3 -1173.3,1173.3" style="fill:#1d1d1b;fill-opacity:1;fill-rule:nonzero;stroke:none" transform="matrix(0.13333333,0,0,-0.13333333,0,3728)" />
        </g>
    </g>
</svg>
